<?xml version="1.0" encoding="utf-8"?>
<!-- Generator: Adobe Illustrator 26.0.3, SVG Export Plug-In . SVG Version: 6.00 Build 0)  -->
<svg version="1.1" id="Layer_1" xmlns="http://www.w3.org/2000/svg" xmlns:xlink="http://www.w3.org/1999/xlink" x="0px" y="0px"
	 viewBox="0 0 513 57" style="enable-background:new 0 0 513 57;" xml:space="preserve">
<style type="text/css">
	.st0{enable-background:new    ;}
	.st1{fill:#FFFFFF;}
</style>
<g>
	<g class="st0">
		<path class="st1" d="M235.3,4.1c0,0.2-0.1,0.3-0.4,0.3c-0.9,0-2.4-0.1-4.5-0.2c-2-0.1-3.5-0.1-4.5-0.1l-1.3,0
			c-0.8,0-1.3,0-1.3,0.1c-0.2,0.1-0.4,0.5-0.4,1.1v4.2c0,0.8,0.2,1.2,0.5,1.2c1.1,0,2.9-0.1,5.2-0.2c2.3-0.1,4-0.2,5.2-0.2
			c0.2,0,0.4,0.1,0.4,0.3c0,0.2,0,0.5,0,0.9c0,0.4,0,0.7,0,0.9c0,0.2,0,0.5,0,1c0,0.4,0,0.7,0,1c0,0.1-0.1,0.2-0.4,0.2
			c-0.8,0-2,0-3.7-0.1c-1.7,0-2.9-0.1-3.7-0.1c-1.5,0-2.4,0-2.6,0c-0.5,0.1-0.8,0.3-0.8,0.7c0,1.1,0,2.6,0.1,4.8
			c0.1,2.1,0.1,3.7,0.1,4.8c0,0.4-0.1,0.5-0.4,0.5c-0.2,0-0.6,0-1-0.1c-0.5-0.1-0.8-0.1-1.1-0.1c-0.2,0-0.5,0-0.9,0.1
			c-0.4,0-0.7,0.1-0.9,0.1c-0.3,0-0.4-0.1-0.4-0.4c0-1.3,0.1-3.3,0.2-5.9c0.1-2.6,0.2-4.6,0.2-5.9c0-1.2-0.1-5.1-0.4-11.8V1
			c0-0.2,0.1-0.4,0.4-0.4c0.1,0,0.8,0,2.2,0.1c1.8,0,3.6,0,5.1,0c2.1,0,4.8-0.1,8.1-0.4c0.4,0,0.7,0.2,0.8,0.6c0,0.3,0,0.8,0.1,1.4
			C235.2,3.2,235.3,3.8,235.3,4.1z"/>
		<path class="st1" d="M259.4,25c0,0.1-0.1,0.2-0.4,0.2c-0.2,0-0.5,0-1-0.1c-0.4,0-0.8-0.1-1-0.1c-0.2,0-0.6,0-1,0.1
			c-0.4,0-0.8,0.1-1,0.1c-0.3,0-0.7-0.9-1.3-2.7s-1-2.7-1.6-2.7c-0.4,0-1.6,0-3.4,0H246c-1.9,0-3,0-3.3,0c-0.4,0-0.9,0.9-1.3,2.7
			c-0.5,1.8-0.8,2.7-1.1,2.7h-4c-0.2,0-0.4-0.1-0.4-0.2c0-0.1,0.1-0.4,0.2-0.8l4.3-11.8c0.4-1,1.5-3.7,3.3-8.2
			c0.3-0.8,0.8-1.9,1.3-3.4c0.1-0.4,0.3-0.7,0.5-0.7c0.2,0,0.6,0,1,0.1c0.4,0.1,0.8,0.1,1,0.1c0.2,0,0.5,0,1-0.1
			C249,0,249.3,0,249.5,0c0.1,0,0.3,0.2,0.4,0.7c0.3,0.7,1.7,4.2,4.2,10.6C257.7,20.3,259.4,24.9,259.4,25z M251.2,15.2
			c0-0.3-0.5-1.9-1.6-4.6c-1-2.6-1.7-4.4-2.2-5.2c-2.4,6.2-3.7,9.5-3.7,9.8c0,0.4,0.4,0.6,1.3,0.7c0,0,0.6,0,1.7,0h1.8
			C250.4,15.9,251.2,15.7,251.2,15.2z"/>
		<path class="st1" d="M275.5,2.2c-0.2,0.4-0.6,1-1,1.8c-0.1,0.4-0.4,0.9-0.7,1.6c-0.1,0.1-0.2,0.2-0.3,0.2c0,0-0.6-0.2-1.7-0.6
			c-1.1-0.4-2.1-0.6-2.8-0.6c-2.2,0-3.2,1-3.2,2.9c0,1.1,0.8,2,2.3,2.8c2.6,1.3,4,2.1,4.2,2.3c1.5,1.2,2.3,2.8,2.3,4.9
			c0,2.6-1,4.7-3.1,6.2c-1.9,1.4-4.2,2-6.9,2c-1.3,0-2-0.1-2-0.4c0-0.4-0.2-1.1-0.3-2c-0.1-0.4-0.2-0.9-0.4-1.6
			c0-0.1-0.1-0.2-0.1-0.3c0-0.2,0.1-0.2,0.3-0.2c0.3,0,0.7,0,1.3,0.1c0.6,0.1,1,0.1,1.3,0.1c3.6,0,5.5-1.2,5.5-3.5
			c0-1.2-0.7-2.2-2.2-3c-2.7-1.5-4.1-2.3-4.1-2.4c-1.5-1.2-2.2-2.8-2.2-4.8c0-2.2,0.7-3.9,2.2-5.3c1.4-1.3,3.2-1.9,5.4-1.9
			c0.9,0,2,0.2,3.2,0.5c1.3,0.3,2.3,0.8,3,1.2C275.4,2,275.5,2.1,275.5,2.2z"/>
		<path class="st1" d="M294.7,3.8c0,0.3-0.1,0.5-0.3,0.5c-0.3,0-2.4-0.1-6.2-0.2c-0.1,3.6-0.2,6.5-0.2,8.6c0,1.4,0,3.4,0.1,6.1
			c0.1,2.7,0.1,4.7,0.1,6.1c0,0.2-0.2,0.4-0.5,0.4c-0.2,0-0.5,0-1-0.1c-0.4,0-0.8-0.1-1-0.1c-0.2,0-0.5,0-1,0.1
			c-0.4,0-0.8,0.1-1,0.1c-0.3,0-0.4-0.1-0.4-0.4c0-1.3,0.1-3.4,0.2-6c0.1-2.7,0.2-4.7,0.2-6.1c0-2.1-0.1-5-0.2-8.6
			c-3,0.2-5.3,0.3-6.7,0.3c-0.1,0-0.2-0.1-0.2-0.2c0-0.2,0.1-0.5,0.2-0.9c0.1-0.5,0.2-0.8,0.2-0.9c0-0.4,0.1-1,0.2-1.7
			c0.1-0.2,0.2-0.2,0.3-0.2l0.2,0c4.2,0.2,6.9,0.4,8.2,0.4c1.2,0,3.1-0.1,5.8-0.3c1.8-0.1,2.6-0.2,2.3-0.2c0.3,0,0.5,0.1,0.5,0.3
			c0-0.1,0,0.4,0,1.7c0,0.2,0,0.4,0.1,0.7C294.7,3.4,294.7,3.6,294.7,3.8z"/>
	</g>
	<g class="st0">
		<path class="st1" d="M234,40.3c0,0.4-0.4,1.9-1.3,4.4c-0.9,2.5-1.3,3.9-1.3,4.2h-1.7c0-0.3-0.3-1.3-0.8-2.9
			c-0.6-1.7-0.9-2.9-1-3.4h-0.1c-0.1,0.6-0.4,1.7-0.9,3.4c-0.5,1.6-0.7,2.6-0.7,2.9h-1.8c0-0.4-0.4-1.9-1.3-4.4s-1.3-3.9-1.3-4.2
			h2.1c0,0.3,0.3,1.4,0.8,3.3c0.5,1.9,0.8,3.1,0.8,3.4h0.1c0-0.4,0.3-1.5,0.8-3.4c0.5-1.9,0.8-3,0.8-3.4h1.9c0,0.3,0.3,1.5,0.8,3.4
			c0.5,2,0.8,3.1,0.8,3.3h0.1c0-0.3,0.2-1.4,0.7-3.2s0.7-3,0.7-3.5H234z"/>
		<path class="st1" d="M236.6,49h-1.8c0.1-0.9,0.1-2,0.1-3.1c0-1.2-0.1-2.2-0.2-3.1l1.9-0.2c-0.1,0.9-0.1,1.9-0.1,3.3
			C236.5,46.9,236.6,48,236.6,49z M236.9,40.7c0,0.3-0.1,0.6-0.3,0.8c-0.2,0.2-0.5,0.3-0.9,0.3c-0.3,0-0.5-0.1-0.7-0.3
			c-0.2-0.2-0.3-0.4-0.3-0.7c0-0.3,0.1-0.6,0.3-0.8c0.2-0.2,0.5-0.3,0.9-0.3c0.3,0,0.6,0.1,0.7,0.3
			C236.9,40.2,236.9,40.4,236.9,40.7z"/>
		<path class="st1" d="M242.1,47.7l-0.1,1.2c-0.3,0.1-0.7,0.2-1.2,0.2c-0.7,0-1.3-0.2-1.6-0.6s-0.5-1.1-0.5-2.2c0-0.7,0-1.4,0-2.3
			c-0.2,0-0.5,0-0.9,0l0-1.3c0.3,0,0.7,0,0.9,0c0-0.2,0-0.8,0.1-1.8l1.6-0.2c-0.1,0.9-0.1,1.6-0.1,2c0.4,0,0.9,0,1.7-0.1l-0.1,1.3
			c-0.7,0-1.2,0-1.6,0c0,0.6,0,1.2,0,1.8c0,0.8,0.1,1.3,0.2,1.6c0.2,0.3,0.4,0.4,0.8,0.4C241.5,47.8,241.8,47.8,242.1,47.7z"/>
		<path class="st1" d="M249,49h-1.8c0.1-1.1,0.1-2.2,0.1-3.3c0-0.8-0.1-1.3-0.3-1.5c-0.2-0.2-0.5-0.4-1-0.4c-0.5,0-1,0.2-1.4,0.5
			c0,1.9,0,3.4,0.1,4.7H243c0-1.4,0.1-3,0.1-4.9c0-1.8-0.1-3.2-0.2-4.4l1.9-0.1c-0.1,1.4-0.1,2.7-0.1,3.7h0.1c0.6-0.5,1.2-0.8,2-0.8
			c0.7,0,1.3,0.2,1.7,0.5s0.6,0.9,0.6,1.7c0,0.1,0,0.3,0,0.5s0,0.4,0,0.5C249,46.4,249,47.5,249,49z"/>
		<path class="st1" d="M256.5,48.9L255,49c0-0.2,0-0.3,0-0.5h-0.1c-0.5,0.4-1.1,0.6-1.9,0.6c-0.8,0-1.5-0.3-2-0.9
			c-0.5-0.6-0.7-1.3-0.7-2.2c0-1,0.3-1.8,0.8-2.5c0.5-0.7,1.3-1.1,2.3-1.1c0.6,0,1.1,0.1,1.4,0.4h0.1c0-1-0.1-2.1-0.2-3.1l1.9-0.1
			c-0.1,1-0.1,2.5-0.1,4.4C256.4,46,256.5,47.6,256.5,48.9z M254.9,47.4c0-1.4,0-2.6-0.1-3.5c-0.3-0.2-0.7-0.3-1.1-0.3
			c-0.6,0-1,0.2-1.3,0.6c-0.3,0.4-0.4,1-0.4,1.6c0,0.6,0.1,1,0.4,1.4s0.7,0.6,1.1,0.6C254.2,47.9,254.6,47.8,254.9,47.4z"/>
		<path class="st1" d="M262.3,42.7l-0.4,1.5c-0.3-0.1-0.7-0.2-1-0.2c-0.6,0-1.1,0.3-1.3,0.9c0,1.8,0,3.1,0,4.1h-1.8
			c0.1-1.3,0.1-2.4,0.1-3.3c0-1-0.1-2-0.3-3l1.7-0.2c0.1,0.5,0.1,0.8,0.1,0.9h0.1c0.4-0.6,0.9-0.9,1.6-0.9
			C261.6,42.5,261.9,42.5,262.3,42.7z"/>
		<path class="st1" d="M268.5,48.9L267,49c-0.1-0.2-0.1-0.4-0.1-0.5h-0.1c-0.5,0.4-1.1,0.6-2,0.6c-0.6,0-1-0.2-1.4-0.5
			c-0.4-0.3-0.5-0.7-0.5-1.2c0-0.7,0.3-1.2,0.8-1.6c0.6-0.4,1.6-0.7,3-0.7c0-0.1,0-0.2,0-0.2c0-0.5-0.1-0.8-0.3-0.9
			c-0.2-0.2-0.7-0.2-1.3-0.2c-0.7,0-1.3,0.1-2,0.3l0.1-1.2c0.6-0.2,1.4-0.3,2.5-0.3c0.8,0,1.4,0.2,1.8,0.5c0.4,0.3,0.7,0.9,0.7,1.8
			c0,0.2,0,0.5,0,1c0,0.5,0,0.8,0,1C268.3,47.6,268.4,48.4,268.5,48.9z M266.8,47.6c0-0.6,0-1.1,0-1.5c-1.5,0-2.3,0.4-2.3,1.1
			c0,0.5,0.3,0.8,1,0.8C266,48,266.4,47.8,266.8,47.6z"/>
		<path class="st1" d="M279.5,42.7c0,0.3-0.4,1.3-1.1,3.1c-0.7,1.8-1.1,2.9-1.1,3.2h-1.5c0-0.2-0.2-0.8-0.5-1.9
			c-0.4-1.3-0.7-2.2-0.9-2.7h-0.1c-0.1,0.5-0.4,1.3-0.8,2.6c-0.3,1-0.5,1.7-0.5,1.9h-1.5c0-0.3-0.3-1.3-1-3.2s-1-2.9-1-3.1h1.9
			c0,0.2,0.2,0.9,0.6,2.3s0.6,2.1,0.6,2.4h0.1c0-0.3,0.2-1.1,0.7-2.4c0.4-1.3,0.7-2,0.7-2.3h1.6c0,0.2,0.2,0.9,0.6,2.3
			c0.4,1.4,0.6,2.1,0.6,2.4h0.1c0-0.2,0.2-1,0.6-2.3c0.4-1.3,0.6-2.1,0.6-2.4H279.5z"/>
		<path class="st1" d="M285.9,48.9l-1.6,0.1c-0.1-0.2-0.1-0.4-0.1-0.5h-0.1c-0.5,0.4-1.1,0.6-2,0.6c-0.6,0-1-0.2-1.4-0.5
			c-0.4-0.3-0.5-0.7-0.5-1.2c0-0.7,0.3-1.2,0.8-1.6c0.6-0.4,1.6-0.7,3-0.7c0-0.1,0-0.2,0-0.2c0-0.5-0.1-0.8-0.3-0.9
			c-0.2-0.2-0.7-0.2-1.3-0.2c-0.7,0-1.3,0.1-2,0.3l0.1-1.2c0.6-0.2,1.4-0.3,2.5-0.3c0.8,0,1.4,0.2,1.8,0.5c0.4,0.3,0.7,0.9,0.7,1.8
			c0,0.2,0,0.5,0,1c0,0.5,0,0.8,0,1C285.6,47.6,285.7,48.4,285.9,48.9z M284.1,47.6c0-0.6,0-1.1,0-1.5c-1.5,0-2.3,0.4-2.3,1.1
			c0,0.5,0.3,0.8,1,0.8C283.3,48,283.7,47.8,284.1,47.6z"/>
		<path class="st1" d="M289.1,49h-1.8c0.1-1.5,0.1-3.1,0.1-4.9c0-1.7-0.1-3.2-0.2-4.4l1.9-0.1c-0.1,1.2-0.1,2.7-0.1,4.5
			C289,45.8,289,47.4,289.1,49z"/>
	</g>
</g>
<g>
	<g class="st0">
		<path class="st1" d="M443.6,24.8c0,0.3-0.1,0.4-0.4,0.4c-0.2,0-0.5,0-1-0.1c-0.4,0-0.7-0.1-1-0.1c-0.2,0-0.5,0-1,0.1
			c-0.4,0-0.8,0.1-1,0.1c-0.3,0-0.4-0.2-0.4-0.6c0-1.5,0-3.7,0.1-6.7c0.1-3,0.1-5.2,0.1-6.7c0-0.2,0-0.3-0.1-0.3
			c-0.1,0-0.2,0.1-0.2,0.2c-0.6,1.3-2,4.7-4.2,10.3c-0.4,1.1-0.9,2.4-1.6,4c-0.1,0.2-0.5,0.2-1.3,0.2c-1.1,0-1.7-0.1-1.8-0.3
			c-0.4-1-1-2.3-1.7-4c-1-2.3-2.5-5.8-4.5-10.4c0-0.1-0.1-0.2-0.2-0.2c-0.1,0.1-0.1,0.2-0.1,0.4c0,1.5,0,3.8,0.1,6.8
			c0.1,3,0.1,5.3,0.1,6.8c0,0.4-0.1,0.6-0.4,0.6c-0.2,0-0.5,0-0.9-0.1c-0.4,0-0.7-0.1-0.9-0.1c-0.2,0-0.5,0-0.9,0.1
			c-0.4,0-0.7,0.1-0.9,0.1c-0.3,0-0.4-0.1-0.4-0.3c0-1.3,0.1-3.3,0.2-5.9c0.1-2.6,0.2-4.6,0.2-5.9c0-1.4-0.1-3.4-0.2-6.1
			c-0.1-2.7-0.2-4.7-0.2-6.1c0-0.2,0.1-0.4,0.4-0.4c1.6-0.2,2.8-0.3,3.6-0.3c0.1,0,0.3,0.2,0.5,0.7c2.8,6.3,5.3,11.8,7.3,16.8
			c0.5,1.2,0.8,1.7,0.9,1.7c0.1,0,0.4-0.5,0.8-1.4c1.6-3.8,3.8-9.5,6.6-17c0.2-0.5,0.4-0.7,0.6-0.7c0.4,0,1,0,1.8,0.1
			c0.8,0,1.4,0.1,1.8,0.1c0.3,0,0.4,0.1,0.4,0.4c0,1.4,0,3.4-0.1,6.1c-0.1,2.7-0.1,4.7-0.1,6.1c0,1.3,0,3.2,0.1,5.8
			C443.6,21.6,443.6,23.5,443.6,24.8z"/>
		<path class="st1" d="M464.1,21.7c0,0.2,0,0.5-0.1,0.8c-0.1,0.4-0.2,0.7-0.2,0.8c0,0.4-0.1,1-0.2,1.9c-0.1,0.2-0.2,0.3-0.5,0.3
			c-0.1,0-0.3,0-0.7-0.1c-1.4-0.2-3.7-0.3-6.7-0.3c-0.9,0-2.2,0-3.9,0.1c-1.7,0-3,0.1-3.9,0.1c-0.4,0-0.6-0.2-0.6-0.5
			c0-1.3,0.1-3.3,0.2-5.9c0.1-2.6,0.2-4.6,0.2-5.9c0-1.3-0.1-3.8-0.2-7.5c0-0.9-0.1-2.3-0.2-4.2l0-0.2c0-0.3,0.1-0.4,0.5-0.4
			c0.8,0,2.1,0,3.7,0.1c1.6,0,2.9,0.1,3.7,0.1c0.8,0,2,0,3.5-0.1c1.6,0,2.7-0.1,3.5-0.1c0.6,0,0.9,0.2,0.9,0.5
			c0.2,1.6,0.4,2.5,0.4,2.9c0,0.3-0.1,0.4-0.4,0.4c-1,0-2.5-0.1-4.5-0.2C456.6,4,455.1,4,454,4c-1,0-1.6,0.1-1.8,0.4
			c-0.3,0.3-0.4,0.9-0.4,1.9v2.6c0,0.7,0,1.1,0.1,1.3c0.1,0.4,0.4,0.5,0.9,0.5c0.1,0,0.3,0,0.6,0c0.3,0,0.5,0,0.6,0
			c2.3,0,4.4,0,6.2-0.1c0.7,0,1.6-0.1,2.5-0.2c0.2,0,0.4,0.1,0.4,0.3c0,0.4,0,1-0.1,1.7s-0.1,1.4-0.1,1.7c0,0.2-0.2,0.3-0.5,0.3
			c-0.1,0-0.7,0-1.6-0.1c-0.7-0.1-2.1-0.1-4.4-0.1c-1.9,0-3.2,0-3.7,0.1c-0.5,0-0.7,0.3-0.8,0.7c0-0.1,0,0.4,0,1.4v2.6
			c0,1.2,0.2,2,0.6,2.3c0.3,0.2,1,0.4,2.2,0.4l1.9,0c0.8,0,3.1-0.1,6.9-0.4l0.3,0C464,21.2,464.1,21.4,464.1,21.7z"/>
		<path class="st1" d="M488.4,24.4c0,0.3-0.1,0.4-0.4,0.4c-0.2,0-0.6-0.2-1.3-0.5c-0.7-0.3-1.1-0.6-1.3-0.7
			c-2.2,1.5-4.7,2.2-7.7,2.2c-3.5,0-6.3-1.3-8.5-3.9c-2.1-2.4-3.2-5.4-3.2-8.9c0-3.6,1-6.6,3.1-9.1c2.2-2.6,5.1-3.9,8.6-3.9
			c1.8,0,3.6,0.4,5.2,1.3c1.7,0.9,3,2,4,3.5c0.2,0.2,0.2,0.4,0.2,0.5c0,0.2-0.4,0.7-1.3,1.6c-0.8,0.9-1.3,1.4-1.5,1.4
			c-0.1,0-0.5-0.4-1.1-1.1c-0.8-0.9-1.5-1.5-2.2-2c-1.1-0.7-2.2-1.1-3.4-1.1c-2.2,0-4,0.9-5.5,2.8c-1.3,1.7-1.9,3.7-1.9,6
			c0,2.2,0.7,4.2,2,6c1.4,1.9,3.3,2.8,5.4,2.8c2.2,0,4.1-0.6,5.9-1.8c0-0.3-0.1-1.4-0.3-3.4c-0.1-1.4-0.2-2.5-0.2-3.3
			c0-0.2,0.1-0.3,0.4-0.3c0.2,0,0.6,0,1,0c0.4,0,0.8,0,1,0c0.2,0,0.6,0,1,0c0.5,0,0.8,0,1,0c0.2,0,0.4,0.2,0.4,0.6c0,0.4,0,1,0,1.9
			c0,0.8,0,1.4,0,1.9c0,1.7,0.1,4,0.3,6.9L488.4,24.4z"/>
		<path class="st1" d="M513,25c0,0.1-0.1,0.2-0.4,0.2c-0.2,0-0.6,0-1-0.1c-0.4,0-0.8-0.1-1-0.1c-0.2,0-0.6,0-1,0.1
			c-0.4,0-0.8,0.1-1,0.1c-0.3,0-0.7-0.9-1.3-2.7s-1-2.7-1.6-2.7c-0.4,0-1.6,0-3.4,0h-2.8c-1.9,0-3,0-3.3,0c-0.4,0-0.9,0.9-1.3,2.7
			c-0.5,1.8-0.8,2.7-1.1,2.7h-4c-0.2,0-0.4-0.1-0.4-0.2c0-0.1,0.1-0.4,0.2-0.8l4.3-11.8c0.4-1,1.5-3.7,3.3-8.2
			c0.3-0.8,0.8-1.9,1.3-3.4c0.1-0.4,0.3-0.7,0.5-0.7c0.2,0,0.6,0,1,0.1c0.4,0.1,0.8,0.1,1,0.1c0.2,0,0.5,0,1-0.1
			c0.4-0.1,0.7-0.1,0.9-0.1c0.1,0,0.3,0.2,0.4,0.7c0.3,0.7,1.7,4.2,4.2,10.6C511.2,20.4,513,25,513,25z M504.8,15.3
			c0-0.3-0.5-1.9-1.6-4.6c-1-2.6-1.7-4.4-2.2-5.2c-2.4,6.2-3.7,9.5-3.7,9.8c0,0.4,0.4,0.6,1.3,0.7c0,0,0.6,0,1.7,0h1.8
			C503.9,16,504.8,15.8,504.8,15.3z"/>
	</g>
	<g class="st0">
		<path class="st1" d="M461.3,40.4c0,0.4-0.4,1.9-1.3,4.4c-0.9,2.5-1.3,3.9-1.3,4.2h-1.7c0-0.3-0.3-1.3-0.8-2.9
			c-0.6-1.7-0.9-2.9-1-3.4H455c-0.1,0.6-0.4,1.7-0.9,3.4c-0.5,1.6-0.7,2.6-0.7,2.9h-1.8c0-0.4-0.4-1.9-1.3-4.4
			c-0.9-2.5-1.3-3.9-1.3-4.2h2.1c0,0.3,0.3,1.4,0.8,3.3s0.8,3.1,0.8,3.4h0.1c0-0.4,0.3-1.5,0.8-3.4c0.5-1.9,0.8-3,0.8-3.4h1.9
			c0,0.3,0.3,1.5,0.8,3.4c0.5,2,0.8,3.1,0.8,3.3h0.1c0-0.3,0.2-1.4,0.7-3.2c0.5-1.8,0.7-3,0.7-3.5H461.3z"/>
		<path class="st1" d="M464.2,49h-1.9c0.1-1.4,0.1-2.9,0.1-4.5c0-1.6,0-3-0.1-4.1h1.9c-0.1,1.1-0.1,2.5-0.1,4.1
			C464.1,46.2,464.1,47.7,464.2,49z"/>
		<path class="st1" d="M473.2,49h-1.6c0-0.2-0.6-1.1-1.8-2.9c-1.3-1.8-2-3.1-2.2-3.7h-0.1c0.1,1,0.2,1.8,0.2,2.6c0,1.1,0,2.4,0.1,4
			h-1.6c0.1-1.4,0.1-2.9,0.1-4.5c0-1.6,0-3-0.1-4.1h2c0,0.2,0.5,1.2,1.6,2.8c1.2,1.7,1.8,2.9,2,3.5h0.1c-0.1-1-0.2-1.9-0.2-2.6
			c0-1.2,0-2.4-0.1-3.7h1.7c-0.1,1.1-0.1,2.5-0.1,4.1C473.1,46.2,473.1,47.7,473.2,49z"/>
		<path class="st1" d="M480.7,46.7c0,1.7-1.2,2.6-3.7,2.6c-0.8,0-1.6-0.1-2.3-0.3l0.3-1.5c0.7,0.2,1.4,0.4,2,0.4
			c0.7,0,1.2-0.1,1.5-0.2c0.3-0.1,0.5-0.4,0.5-0.7c0-0.3-0.1-0.6-0.4-0.8c-0.3-0.2-0.8-0.5-1.5-0.8c-0.7-0.3-1.2-0.6-1.6-1
			c-0.4-0.4-0.6-1-0.6-1.6c0-0.8,0.3-1.4,0.8-1.8c0.6-0.4,1.4-0.6,2.4-0.6c0.9,0,1.6,0.1,2.2,0.2L480,42c-0.6-0.2-1.2-0.3-1.9-0.3
			c-1,0-1.6,0.3-1.6,0.8c0,0.3,0.1,0.5,0.4,0.7c0.2,0.2,0.7,0.4,1.4,0.7c0.8,0.3,1.3,0.6,1.7,1C480.5,45.4,480.7,46,480.7,46.7z"/>
	</g>
</g>
<g>
	<g class="st0">
		<path class="st1" d="M15.2,2.1c0,0.4,0,0.6,0,0.8c0,0.1-0.2,0.4-0.7,1c-1.6,2.1-2.9,4.9-4.1,8.4c-1.1,3.3-1.9,6.2-2.2,8.7
			c0,0.3-0.1,0.5-0.1,0.6c-0.1,0.2-0.2,0.3-0.5,0.3c-0.3,0.1-1,0.1-2.1,0.1c-1.1,0-1.8,0-2-0.1c-0.1,0-0.2-0.2-0.2-0.4
			c0-1.5,0.6-3.6,1.8-6.5c0.8-1.9,1.9-4.2,3.3-7c1.2-2.3,1.8-3.5,1.8-3.6C10.1,4.1,9.9,4,9.6,4C8.6,4,7.1,4.1,5,4.3
			C3,4.4,1.5,4.5,0.5,4.5C0.2,4.5,0,4.4,0,4.2C0,4,0,3.7,0.1,3.3c0.1-0.5,0.1-0.8,0.2-0.9c0-0.2,0-0.9,0-1.9c0-0.2,0.2-0.4,0.5-0.4
			c0.8,0,2.1,0.1,4,0.2C6,0.4,9.3,0.5,14.5,0.5C14.9,0.5,15.2,1,15.2,2.1z"/>
		<path class="st1" d="M36.2,11c0,3-0.9,5.5-2.6,7.7c-1.9,2.3-4.3,3.4-7.2,3.4c-2.9,0-5.3-1.1-7.1-3.4c-1.8-2.2-2.6-4.7-2.6-7.7
			c0-3,0.9-5.5,2.6-7.6C21.2,1.1,23.5,0,26.4,0c2.9,0,5.3,1.1,7.2,3.4C35.3,5.5,36.2,8.1,36.2,11z M32.1,11c0-1.8-0.5-3.4-1.4-4.7
			c-1.1-1.4-2.5-2.2-4.2-2.2c-1.8,0-3.2,0.7-4.2,2.2c-0.9,1.3-1.4,2.9-1.4,4.7c0,1.8,0.5,3.4,1.4,4.7c1.1,1.5,2.5,2.2,4.2,2.2
			c1.7,0,3.1-0.8,4.2-2.3C31.6,14.3,32.1,12.7,32.1,11z"/>
		<path class="st1" d="M57.8,11c0,3-0.9,5.5-2.6,7.7c-1.9,2.3-4.3,3.4-7.2,3.4c-2.9,0-5.3-1.1-7.1-3.4c-1.8-2.2-2.6-4.7-2.6-7.7
			c0-3,0.9-5.5,2.6-7.6C42.7,1.1,45.1,0,48,0c2.9,0,5.3,1.1,7.2,3.4C56.9,5.5,57.8,8.1,57.8,11z M53.6,11c0-1.8-0.5-3.4-1.4-4.7
			c-1.1-1.4-2.5-2.2-4.2-2.2c-1.8,0-3.2,0.7-4.2,2.2c-0.9,1.3-1.4,2.9-1.4,4.7c0,1.8,0.5,3.4,1.4,4.7c1.1,1.5,2.5,2.2,4.2,2.2
			c1.7,0,3.1-0.8,4.2-2.3C53.1,14.3,53.6,12.7,53.6,11z"/>
		<path class="st1" d="M79.3,11c0,3-0.9,5.5-2.6,7.7c-1.9,2.3-4.3,3.4-7.2,3.4c-2.9,0-5.3-1.1-7.1-3.4c-1.8-2.2-2.6-4.7-2.6-7.7
			c0-3,0.9-5.5,2.6-7.6C64.3,1.1,66.7,0,69.6,0c2.9,0,5.3,1.1,7.2,3.4C78.5,5.5,79.3,8.1,79.3,11z M75.2,11c0-1.8-0.5-3.4-1.4-4.7
			c-1.1-1.4-2.5-2.2-4.2-2.2c-1.8,0-3.2,0.7-4.2,2.2C64.4,7.6,64,9.2,64,11c0,1.8,0.5,3.4,1.4,4.7c1.1,1.5,2.5,2.2,4.2,2.2
			c1.7,0,3.1-0.8,4.2-2.3C74.7,14.3,75.2,12.7,75.2,11z"/>
		<path class="st1" d="M94.2,9.5c0,0.2-0.1,1.2-0.3,2.9c0,0.1-0.1,0.1-0.2,0.1c-0.6,0-1.3,0-2.3-0.1c-1.2,0-1.9-0.1-2.3-0.1
			c0,0.6,0,1.5,0.1,2.7c0,1.2,0.1,2.1,0.1,2.7c0,0.5-0.6,0.7-1.8,0.7c-0.8,0-1.3-0.1-1.6-0.2c-0.1-0.1-0.2-0.2-0.2-0.4
			c0-0.7,0-1.6,0-2.7c0-1.4,0.1-2.3,0.1-2.7c-0.3,0-1.1,0-2.2,0.1c-0.9,0-1.7,0.1-2.2,0.1c-0.2,0-0.3-0.1-0.3-0.2
			c0-0.1,0.1-0.6,0.2-1.4c0-0.5,0-1,0.1-1.5c0.1-0.1,0.2-0.2,0.4-0.2c-0.3,0,1,0,4.1,0.1c0-0.6,0-1.5,0-2.6c0-1.2,0-2.1,0-2.6
			c0-0.2,0.1-0.3,0.3-0.3c0.3,0,0.7,0,1.3,0c0.6,0,1.1,0,1.3,0c0.3,0,0.4,0.2,0.4,0.5c0,0.6,0,1.4-0.1,2.6c0,1.1-0.1,2-0.1,2.6
			c0.5,0,1.3,0,2.4,0c1.1,0,1.9,0,2.4,0C94.1,9.3,94.2,9.4,94.2,9.5z"/>
	</g>
	<g class="st0">
		<path class="st1" d="M28.6,39.1c0,1.1-0.4,1.8-1.2,2.3c-0.8,0.5-1.7,0.8-2.9,0.8c-0.2,0-0.4,0-0.4,0c0,0.8,0,1.9,0.1,3.3h-1.9
			c0.1-1.3,0.1-2.8,0.1-4.5c0-1.6,0-3-0.1-4.1h1.2c0.2,0,0.5,0,0.9,0c0.5,0,0.9,0,1.2,0c0.8,0,1.5,0.2,2.1,0.6
			C28.3,37.7,28.6,38.3,28.6,39.1z M26.9,39.4c0-0.9-0.6-1.4-1.9-1.4c-0.3,0-0.6,0-1,0.1c0,0.8,0.1,1.8,0.1,2.8c0.1,0,0.2,0,0.4,0
			C26.1,40.9,26.9,40.4,26.9,39.4z"/>
		<path class="st1" d="M37.8,40.9c0,1.4-0.4,2.5-1.2,3.4c-0.8,0.9-1.9,1.3-3.1,1.3c-1.2,0-2.1-0.4-2.9-1.2c-0.8-0.8-1.2-1.9-1.2-3.1
			c0-1.4,0.4-2.5,1.2-3.4s1.9-1.3,3.1-1.3c1.2,0,2.1,0.4,2.9,1.2C37.4,38.6,37.8,39.7,37.8,40.9z M36,41.1c0-0.9-0.2-1.7-0.7-2.2
			c-0.5-0.6-1.1-0.9-1.7-0.9c-0.6,0-1.2,0.3-1.6,0.9c-0.4,0.6-0.7,1.3-0.7,2.2c0,0.9,0.2,1.7,0.7,2.2s1.1,0.9,1.7,0.9
			c0.6,0,1.2-0.3,1.6-0.9S36,42,36,41.1z"/>
		<path class="st1" d="M46.2,45.4h-2.2c0-0.2-0.4-0.9-1.1-2.1c-0.8-1.3-1.4-1.9-1.7-1.9h-0.2c0,1,0,2.3,0.1,4h-1.9
			c0.1-1.3,0.1-2.8,0.1-4.5c0-1.6,0-3-0.1-4.1h1.9c0,1.2-0.1,2.4-0.1,3.4h0.1c0.2,0,0.7-0.5,1.5-1.6c0.8-1.1,1.1-1.7,1.1-1.8h2
			c0,0.1-0.4,0.7-1.2,1.6c-0.8,1-1.4,1.6-1.8,1.9v0.1c0.4,0.2,1.2,1.1,2.1,2.6C45.8,44.4,46.2,45.2,46.2,45.4z"/>
		<path class="st1" d="M49.1,45.4h-1.9c0.1-1.4,0.1-2.9,0.1-4.5c0-1.6,0-3-0.1-4.1h1.9c-0.1,1.1-0.1,2.5-0.1,4.1
			C49,42.6,49.1,44.1,49.1,45.4z"/>
		<path class="st1" d="M56.7,44l-0.1,1.5H51c0.1-1.3,0.1-2.8,0.1-4.5c0-1.6,0-3-0.1-4.1h5.4l-0.1,1.4c-1.3-0.1-2.5-0.1-3.6-0.1
			c0,0.6,0.1,1.3,0.1,2.2c0.9,0,1.9,0,3-0.1v1.4c-1,0-2-0.1-3-0.1c0,0.9,0,1.7,0.1,2.5C54.1,44.1,55.4,44,56.7,44z"/>
		<path class="st1" d="M63.8,43.1c0,1.7-1.2,2.6-3.7,2.6c-0.8,0-1.6-0.1-2.3-0.3l0.3-1.5c0.7,0.2,1.4,0.4,2,0.4
			c0.7,0,1.2-0.1,1.5-0.2c0.3-0.1,0.5-0.4,0.5-0.7c0-0.3-0.1-0.6-0.4-0.8c-0.3-0.2-0.8-0.5-1.5-0.8c-0.7-0.3-1.2-0.6-1.6-1
			c-0.4-0.4-0.6-1-0.6-1.6c0-0.8,0.3-1.4,0.8-1.8c0.6-0.4,1.4-0.6,2.4-0.6c0.9,0,1.6,0.1,2.2,0.2l-0.2,1.5c-0.6-0.2-1.2-0.3-1.9-0.3
			c-1,0-1.6,0.3-1.6,0.8c0,0.3,0.1,0.5,0.4,0.7c0.2,0.2,0.7,0.4,1.4,0.7c0.8,0.3,1.3,0.6,1.7,1C63.6,41.7,63.8,42.3,63.8,43.1z"/>
	</g>
</g>
</svg>
