<svg width="435" height="90" viewBox="0 0 435 90" fill="none" xmlns="http://www.w3.org/2000/svg">
<path d="M363 0H72C47.1472 0 27 20.1472 27 45C27 69.8528 47.1472 90 72 90H363C387.853 90 408 69.8528 408 45C408 20.1472 387.853 0 363 0Z" fill="url(#paint0_linear_30_579)"/>
<path d="M45 47.1119C45 45.3657 45.3598 43.8125 46.0794 42.4524C46.8158 41.0756 47.8534 40.0093 49.1922 39.2537C50.531 38.4813 52.0707 38.0952 53.8111 38.0952C56.0202 38.0952 57.8778 38.6912 59.384 39.8834C60.8901 41.0588 61.8608 42.6623 62.2959 44.694H56.9992C56.6812 44.0224 56.2377 43.5103 55.6687 43.1576C55.1165 42.805 54.4722 42.6287 53.7358 42.6287C52.5978 42.6287 51.6857 43.0401 50.9996 43.8629C50.3302 44.6688 49.9955 45.7519 49.9955 47.1119C49.9955 48.4888 50.3302 49.5886 50.9996 50.4114C51.6857 51.2174 52.5978 51.6203 53.7358 51.6203C54.4722 51.6203 55.1165 51.444 55.6687 51.0914C56.2377 50.7388 56.6812 50.2267 56.9992 49.555H62.2959C61.8608 51.5868 60.8901 53.1987 59.384 54.3909C57.8778 55.5662 56.0202 56.1539 53.8111 56.1539C52.0707 56.1539 50.531 55.7761 49.1922 55.0205C47.8534 54.2481 46.8158 53.1819 46.0794 51.8218C45.3598 50.445 45 48.875 45 47.1119Z" fill="#0F0F0F"/>
<path d="M69.5459 52.25H75.0435V56.028H64.6258V38.2715H69.5459V52.25Z" fill="#0F0F0F"/>
<path d="M81.8768 38.2715V56.028H76.9566V38.2715H81.8768Z" fill="#0F0F0F"/>
<path d="M96.8034 59L94.8453 56.0532C94.2931 56.1539 93.7325 56.2043 93.1635 56.2043C91.5067 56.2043 89.9838 55.8181 88.5947 55.0457C87.2057 54.2565 86.1012 53.1735 85.2811 51.7966C84.4778 50.403 84.0762 48.833 84.0762 47.0868C84.0762 45.3405 84.4778 43.7789 85.2811 42.4021C86.1012 41.0084 87.2057 39.9254 88.5947 39.153C89.9838 38.3806 91.5067 37.9944 93.1635 37.9944C94.837 37.9944 96.3599 38.3806 97.7322 39.153C99.1212 39.9254 100.217 41.0084 101.021 42.4021C101.824 43.7789 102.226 45.3405 102.226 47.0868C102.226 48.5476 101.933 49.8993 101.347 51.1418C100.761 52.3675 99.958 53.3918 98.9371 54.2146L102.677 59H96.8034ZM89.0968 47.0868C89.0968 48.4804 89.4566 49.5886 90.1762 50.4114C90.8958 51.2174 91.8916 51.6203 93.1635 51.6203C94.4186 51.6203 95.406 51.209 96.1256 50.3862C96.8619 49.5634 97.2301 48.4636 97.2301 47.0868C97.2301 45.6763 96.8619 44.5681 96.1256 43.7621C95.406 42.9394 94.4186 42.528 93.1635 42.528C91.8916 42.528 90.8958 42.9394 90.1762 43.7621C89.4566 44.5681 89.0968 45.6763 89.0968 47.0868Z" fill="#0F0F0F"/>
<path d="M109.282 38.2715V48.5728C109.282 49.5299 109.499 50.2687 109.934 50.7892C110.386 51.3097 111.064 51.57 111.968 51.57C112.871 51.57 113.549 51.3097 114.001 50.7892C114.47 50.2519 114.704 49.5131 114.704 48.5728V38.2715H119.624V48.5728C119.624 50.2015 119.281 51.5951 118.595 52.7537C117.909 53.8955 116.972 54.7603 115.783 55.3479C114.612 55.9188 113.307 56.2043 111.867 56.2043C110.428 56.2043 109.139 55.9188 108.001 55.3479C106.88 54.7603 105.993 53.8955 105.341 52.7537C104.705 51.6119 104.387 50.2183 104.387 48.5728V38.2715H109.282Z" fill="#0F0F0F"/>
<path d="M127.253 42.2257V45.1222H132.901V48.875H127.253V52.0737H133.654V56.028H122.333V38.2715H133.654V42.2257H127.253Z" fill="#0F0F0F"/>
<path d="M154.873 44.1903C154.873 45.2649 154.622 46.2472 154.12 47.1371C153.634 48.0103 152.89 48.7155 151.886 49.2528C150.898 49.7733 149.685 50.0336 148.246 50.0336H145.811V56.028H140.891V38.2715H148.246C149.668 38.2715 150.873 38.5233 151.861 39.0271C152.865 39.5308 153.618 40.2276 154.12 41.1175C154.622 42.0075 154.873 43.0317 154.873 44.1903ZM147.769 46.1045C149.158 46.1045 149.852 45.4664 149.852 44.1903C149.852 42.8974 149.158 42.2509 147.769 42.2509H145.811V46.1045H147.769Z" fill="#0F0F0F"/>
<path d="M168.045 53.1315H161.77L160.816 56.028H155.645L162.096 38.2715H167.769L174.196 56.028H168.999L168.045 53.1315ZM166.815 49.3535L164.908 43.611L163.025 49.3535H166.815Z" fill="#0F0F0F"/>
<path d="M184.761 56.028L181.247 49.4795H180.719V56.028H175.799V38.2715H183.556C184.979 38.2715 186.184 38.5233 187.171 39.0271C188.158 39.514 188.903 40.194 189.405 41.0672C189.907 41.9235 190.158 42.889 190.158 43.9636C190.158 45.1726 189.823 46.2388 189.154 47.1623C188.501 48.069 187.539 48.7155 186.267 49.1017L190.259 56.028H184.761ZM180.719 46.1045H183.154C183.824 46.1045 184.326 45.945 184.661 45.6259C184.995 45.3069 185.163 44.8451 185.163 44.2407C185.163 43.6698 184.987 43.2248 184.635 42.9058C184.301 42.57 183.807 42.4021 183.154 42.4021H180.719V46.1045Z" fill="#0F0F0F"/>
<path d="M203.592 53.1315H197.316L196.362 56.028H191.191L197.642 38.2715H203.315L209.742 56.028H204.545L203.592 53.1315ZM202.361 49.3535L200.454 43.611L198.571 49.3535H202.361Z" fill="#0F0F0F"/>
<path d="M224.635 56.2043C222.978 56.2043 221.455 55.8181 220.066 55.0457C218.677 54.2565 217.573 53.1735 216.753 51.7966C215.949 50.403 215.548 48.833 215.548 47.0868C215.548 45.3405 215.949 43.7789 216.753 42.4021C217.573 41.0084 218.677 39.9254 220.066 39.153C221.455 38.3806 222.978 37.9944 224.635 37.9944C226.309 37.9944 227.831 38.3806 229.204 39.153C230.593 39.9254 231.689 41.0084 232.492 42.4021C233.296 43.7789 233.697 45.3405 233.697 47.0868C233.697 48.833 233.296 50.403 232.492 51.7966C231.689 53.1735 230.593 54.2565 229.204 55.0457C227.815 55.8181 226.292 56.2043 224.635 56.2043ZM224.635 51.6203C225.89 51.6203 226.878 51.209 227.597 50.3862C228.334 49.5634 228.702 48.4636 228.702 47.0868C228.702 45.6763 228.334 44.5681 227.597 43.7621C226.878 42.9394 225.89 42.528 224.635 42.528C223.363 42.528 222.367 42.9394 221.648 43.7621C220.928 44.5681 220.568 45.6763 220.568 47.0868C220.568 48.4804 220.928 49.5886 221.648 50.4114C222.367 51.2174 223.363 51.6203 224.635 51.6203Z" fill="#0F0F0F"/>
<path d="M247.205 46.9104C248.243 47.1455 249.063 47.666 249.665 48.472C250.285 49.2612 250.594 50.1679 250.594 51.1922C250.594 52.7034 250.075 53.8871 249.038 54.7435C248 55.5998 246.544 56.028 244.67 56.028H235.909V38.2715H244.394C246.201 38.2715 247.615 38.6744 248.636 39.4804C249.674 40.2864 250.193 41.4198 250.193 42.8806C250.193 43.9216 249.916 44.7948 249.364 45.5C248.829 46.1884 248.109 46.6586 247.205 46.9104ZM240.829 45.3237H243.314C244.553 45.3237 245.172 44.8116 245.172 43.7873C245.172 42.7295 244.553 42.2006 243.314 42.2006H240.829V45.3237ZM243.691 52.0485C244.929 52.0485 245.548 51.528 245.548 50.4869C245.548 49.9496 245.381 49.5382 245.046 49.2528C244.728 48.9674 244.268 48.8246 243.666 48.8246H240.829V52.0485H243.691Z" fill="#0F0F0F"/>
<path d="M266.08 38.2715V42.2006H261.361V56.028H256.441V42.2006H251.771V38.2715H266.08Z" fill="#0F0F0F"/>
<path d="M272.821 42.2257V45.1222H278.469V48.875H272.821V52.0737H279.222V56.028H267.9V38.2715H279.222V42.2257H272.821Z" fill="#0F0F0F"/>
<path d="M290.615 56.028L287.1 49.4795H286.573V56.028H281.653V38.2715H289.41C290.832 38.2715 292.037 38.5233 293.025 39.0271C294.012 39.514 294.757 40.194 295.259 41.0672C295.761 41.9235 296.012 42.889 296.012 43.9636C296.012 45.1726 295.677 46.2388 295.008 47.1623C294.355 48.069 293.393 48.7155 292.121 49.1017L296.112 56.028H290.615ZM286.573 46.1045H289.008C289.678 46.1045 290.18 45.945 290.514 45.6259C290.849 45.3069 291.017 44.8451 291.017 44.2407C291.017 43.6698 290.841 43.2248 290.489 42.9058C290.155 42.57 289.661 42.4021 289.008 42.4021H286.573V46.1045Z" fill="#0F0F0F"/>
<path d="M314.351 46.9104C315.388 47.1455 316.208 47.666 316.811 48.472C317.43 49.2612 317.74 50.1679 317.74 51.1922C317.74 52.7034 317.221 53.8871 316.183 54.7435C315.146 55.5998 313.69 56.028 311.815 56.028H303.054V38.2715H311.539C313.347 38.2715 314.761 38.6744 315.781 39.4804C316.819 40.2864 317.338 41.4198 317.338 42.8806C317.338 43.9216 317.062 44.7948 316.509 45.5C315.974 46.1884 315.254 46.6586 314.351 46.9104ZM307.974 45.3237H310.46C311.698 45.3237 312.317 44.8116 312.317 43.7873C312.317 42.7295 311.698 42.2006 310.46 42.2006H307.974V45.3237ZM310.836 52.0485C312.075 52.0485 312.694 51.528 312.694 50.4869C312.694 49.9496 312.526 49.5382 312.192 49.2528C311.874 48.9674 311.414 48.8246 310.811 48.8246H307.974V52.0485H310.836Z" fill="#0F0F0F"/>
<path d="M328.381 56.2043C326.724 56.2043 325.201 55.8181 323.812 55.0457C322.423 54.2565 321.318 53.1735 320.498 51.7966C319.695 50.403 319.293 48.833 319.293 47.0868C319.293 45.3405 319.695 43.7789 320.498 42.4021C321.318 41.0084 322.423 39.9254 323.812 39.153C325.201 38.3806 326.724 37.9944 328.381 37.9944C330.054 37.9944 331.577 38.3806 332.949 39.153C334.338 39.9254 335.435 41.0084 336.238 42.4021C337.041 43.7789 337.443 45.3405 337.443 47.0868C337.443 48.833 337.041 50.403 336.238 51.7966C335.435 53.1735 334.338 54.2565 332.949 55.0457C331.56 55.8181 330.037 56.2043 328.381 56.2043ZM328.381 51.6203C329.636 51.6203 330.623 51.209 331.343 50.3862C332.079 49.5634 332.447 48.4636 332.447 47.0868C332.447 45.6763 332.079 44.5681 331.343 43.7621C330.623 42.9394 329.636 42.528 328.381 42.528C327.109 42.528 326.113 42.9394 325.393 43.7621C324.674 44.5681 324.314 45.6763 324.314 47.0868C324.314 48.4804 324.674 49.5886 325.393 50.4114C326.113 51.2174 327.109 51.6203 328.381 51.6203ZM328.406 35.2239L324.364 37.2388V33.9394L328.406 32L332.397 33.9394V37.2388L328.406 35.2239Z" fill="#0F0F0F"/>
<path d="M356.047 56.028H351.127L344.575 46.1045V56.028H339.655V38.2715H344.575L351.127 48.3209V38.2715H356.047V56.028Z" fill="#0F0F0F"/>
<path d="M363.669 38.2715V48.5728C363.669 49.5299 363.887 50.2687 364.322 50.7892C364.774 51.3097 365.452 51.57 366.355 51.57C367.259 51.57 367.937 51.3097 368.389 50.7892C368.857 50.2519 369.091 49.5131 369.091 48.5728V38.2715H374.012V48.5728C374.012 50.2015 373.669 51.5951 372.982 52.7537C372.296 53.8955 371.359 54.7603 370.171 55.3479C368.999 55.9188 367.694 56.2043 366.255 56.2043C364.816 56.2043 363.527 55.9188 362.389 55.3479C361.268 54.7603 360.381 53.8955 359.728 52.7537C359.092 51.6119 358.774 50.2183 358.774 48.5728V38.2715H363.669Z" fill="#0F0F0F"/>
<path d="M383.398 56.2043C381.339 56.2043 379.649 55.7174 378.327 54.7435C377.005 53.7528 376.294 52.3424 376.193 50.5121H381.44C381.49 51.1334 381.674 51.5868 381.992 51.8722C382.31 52.1576 382.72 52.3004 383.222 52.3004C383.674 52.3004 384.042 52.1912 384.327 51.9729C384.628 51.7379 384.779 51.4188 384.779 51.0159C384.779 50.4953 384.536 50.0924 384.051 49.8069C383.565 49.5215 382.779 49.2024 381.691 48.8498C380.536 48.4636 379.599 48.0942 378.879 47.7416C378.177 47.3722 377.557 46.8433 377.022 46.1549C376.503 45.4496 376.244 44.5345 376.244 43.4095C376.244 42.2677 376.528 41.2938 377.097 40.4879C377.666 39.6651 378.453 39.0438 379.457 38.6241C380.461 38.2043 381.599 37.9944 382.871 37.9944C384.929 37.9944 386.569 38.4813 387.791 39.4552C389.029 40.4123 389.69 41.764 389.774 43.5103H384.427C384.41 42.9729 384.243 42.57 383.925 42.3013C383.624 42.0326 383.231 41.8983 382.745 41.8983C382.377 41.8983 382.076 42.0075 381.842 42.2257C381.607 42.444 381.49 42.7547 381.49 43.1576C381.49 43.4935 381.616 43.7873 381.867 44.0392C382.134 44.2743 382.461 44.4841 382.846 44.6688C383.231 44.8368 383.8 45.055 384.553 45.3237C385.674 45.7099 386.594 46.0961 387.314 46.4823C388.05 46.8517 388.678 47.3806 389.197 48.069C389.732 48.7407 390 49.597 390 50.6381C390 51.6959 389.732 52.6446 389.197 53.4841C388.678 54.3237 387.916 54.9869 386.912 55.4739C385.925 55.9608 384.753 56.2043 383.398 56.2043Z" fill="#0F0F0F"/>
<defs>
<linearGradient id="paint0_linear_30_579" x1="27" y1="0" x2="408" y2="87" gradientUnits="userSpaceOnUse">
<stop stop-color="#F3C025"/>
<stop offset="1" stop-color="#FD8336"/>
</linearGradient>
</defs>
</svg>
